<mxfile host="app.diagrams.net" agent="Mozilla/5.0 (Windows NT 10.0; Win64; x64) AppleWebKit/537.36 (KHTML, like Gecko) Chrome/127.0.0.0 Safari/537.36" version="24.7.7">
  <diagram name="Page-1" id="WIWhAcblUkad2jGklPrL">
    <mxGraphModel dx="1434" dy="772" grid="1" gridSize="10" guides="1" tooltips="1" connect="1" arrows="1" fold="1" page="1" pageScale="1" pageWidth="850" pageHeight="1100" math="0" shadow="0">
      <root>
        <mxCell id="0" />
        <mxCell id="1" parent="0" />
        <mxCell id="k5f1ETuhjHtOltYRsjwA-8" value="" style="edgeStyle=orthogonalEdgeStyle;rounded=0;orthogonalLoop=1;jettySize=auto;html=1;" edge="1" parent="1" source="k5f1ETuhjHtOltYRsjwA-1" target="k5f1ETuhjHtOltYRsjwA-7">
          <mxGeometry relative="1" as="geometry" />
        </mxCell>
        <mxCell id="k5f1ETuhjHtOltYRsjwA-1" value="START" style="ellipse;whiteSpace=wrap;html=1;" vertex="1" parent="1">
          <mxGeometry x="80" y="40" width="120" height="80" as="geometry" />
        </mxCell>
        <mxCell id="k5f1ETuhjHtOltYRsjwA-22" value="" style="edgeStyle=orthogonalEdgeStyle;rounded=0;orthogonalLoop=1;jettySize=auto;html=1;" edge="1" parent="1" source="k5f1ETuhjHtOltYRsjwA-2" target="k5f1ETuhjHtOltYRsjwA-20">
          <mxGeometry relative="1" as="geometry" />
        </mxCell>
        <mxCell id="k5f1ETuhjHtOltYRsjwA-2" value="gather all the required material&lt;div&gt;&amp;nbsp;for the manufacturing of a car;&amp;nbsp;&lt;/div&gt;&lt;div&gt;engine, interior, exterior, etc.&lt;/div&gt;" style="shape=parallelogram;perimeter=parallelogramPerimeter;whiteSpace=wrap;html=1;fixedSize=1;" vertex="1" parent="1">
          <mxGeometry x="241.25" y="160" width="207.5" height="60" as="geometry" />
        </mxCell>
        <mxCell id="k5f1ETuhjHtOltYRsjwA-32" value="" style="edgeStyle=orthogonalEdgeStyle;rounded=0;orthogonalLoop=1;jettySize=auto;html=1;" edge="1" parent="1" source="k5f1ETuhjHtOltYRsjwA-4" target="k5f1ETuhjHtOltYRsjwA-29">
          <mxGeometry relative="1" as="geometry" />
        </mxCell>
        <mxCell id="k5f1ETuhjHtOltYRsjwA-4" value="assemble the car" style="shape=process;whiteSpace=wrap;html=1;backgroundOutline=1;" vertex="1" parent="1">
          <mxGeometry x="80" y="260" width="120" height="60" as="geometry" />
        </mxCell>
        <mxCell id="k5f1ETuhjHtOltYRsjwA-10" value="" style="edgeStyle=orthogonalEdgeStyle;rounded=0;orthogonalLoop=1;jettySize=auto;html=1;" edge="1" parent="1" source="k5f1ETuhjHtOltYRsjwA-7" target="k5f1ETuhjHtOltYRsjwA-4">
          <mxGeometry relative="1" as="geometry" />
        </mxCell>
        <mxCell id="k5f1ETuhjHtOltYRsjwA-7" value="INPUT" style="shape=process;whiteSpace=wrap;html=1;backgroundOutline=1;" vertex="1" parent="1">
          <mxGeometry x="80" y="160" width="120" height="60" as="geometry" />
        </mxCell>
        <mxCell id="k5f1ETuhjHtOltYRsjwA-13" value="END" style="ellipse;whiteSpace=wrap;html=1;" vertex="1" parent="1">
          <mxGeometry x="80" y="520" width="120" height="60" as="geometry" />
        </mxCell>
        <mxCell id="k5f1ETuhjHtOltYRsjwA-21" value="" style="edgeStyle=orthogonalEdgeStyle;rounded=0;orthogonalLoop=1;jettySize=auto;html=1;" edge="1" parent="1" source="k5f1ETuhjHtOltYRsjwA-15" target="k5f1ETuhjHtOltYRsjwA-2">
          <mxGeometry relative="1" as="geometry" />
        </mxCell>
        <mxCell id="k5f1ETuhjHtOltYRsjwA-15" value="INPUT" style="ellipse;whiteSpace=wrap;html=1;" vertex="1" parent="1">
          <mxGeometry x="280" y="40" width="130" height="80" as="geometry" />
        </mxCell>
        <mxCell id="k5f1ETuhjHtOltYRsjwA-24" value="" style="edgeStyle=orthogonalEdgeStyle;rounded=0;orthogonalLoop=1;jettySize=auto;html=1;" edge="1" parent="1" source="k5f1ETuhjHtOltYRsjwA-17" target="k5f1ETuhjHtOltYRsjwA-23">
          <mxGeometry relative="1" as="geometry" />
        </mxCell>
        <mxCell id="k5f1ETuhjHtOltYRsjwA-17" value="assemble the car" style="ellipse;whiteSpace=wrap;html=1;" vertex="1" parent="1">
          <mxGeometry x="480" y="40" width="120" height="80" as="geometry" />
        </mxCell>
        <mxCell id="k5f1ETuhjHtOltYRsjwA-19" value="EXIT" style="ellipse;whiteSpace=wrap;html=1;" vertex="1" parent="1">
          <mxGeometry x="480" y="260" width="120" height="80" as="geometry" />
        </mxCell>
        <mxCell id="k5f1ETuhjHtOltYRsjwA-20" value="EXIT" style="ellipse;whiteSpace=wrap;html=1;" vertex="1" parent="1">
          <mxGeometry x="285" y="260" width="120" height="80" as="geometry" />
        </mxCell>
        <mxCell id="k5f1ETuhjHtOltYRsjwA-25" value="" style="edgeStyle=orthogonalEdgeStyle;rounded=0;orthogonalLoop=1;jettySize=auto;html=1;" edge="1" parent="1" source="k5f1ETuhjHtOltYRsjwA-23" target="k5f1ETuhjHtOltYRsjwA-19">
          <mxGeometry relative="1" as="geometry" />
        </mxCell>
        <mxCell id="k5f1ETuhjHtOltYRsjwA-23" value="build the car" style="rounded=0;whiteSpace=wrap;html=1;" vertex="1" parent="1">
          <mxGeometry x="480" y="160" width="120" height="60" as="geometry" />
        </mxCell>
        <mxCell id="k5f1ETuhjHtOltYRsjwA-33" value="" style="edgeStyle=orthogonalEdgeStyle;rounded=0;orthogonalLoop=1;jettySize=auto;html=1;" edge="1" parent="1" source="k5f1ETuhjHtOltYRsjwA-29" target="k5f1ETuhjHtOltYRsjwA-13">
          <mxGeometry relative="1" as="geometry" />
        </mxCell>
        <mxCell id="k5f1ETuhjHtOltYRsjwA-29" value="check if the car&amp;nbsp;&lt;div&gt;&lt;span style=&quot;background-color: initial;&quot;&gt;is assembled properly and drivable&lt;/span&gt;&lt;/div&gt;" style="rhombus;whiteSpace=wrap;html=1;" vertex="1" parent="1">
          <mxGeometry x="77.5" y="360" width="125" height="120" as="geometry" />
        </mxCell>
        <mxCell id="k5f1ETuhjHtOltYRsjwA-34" value="true" style="text;strokeColor=none;align=center;fillColor=none;html=1;verticalAlign=middle;whiteSpace=wrap;rounded=0;" vertex="1" parent="1">
          <mxGeometry x="130" y="480" width="60" height="30" as="geometry" />
        </mxCell>
        <mxCell id="k5f1ETuhjHtOltYRsjwA-35" value="false" style="text;strokeColor=none;align=center;fillColor=none;html=1;verticalAlign=middle;whiteSpace=wrap;rounded=0;" vertex="1" parent="1">
          <mxGeometry x="30" y="420" width="60" height="30" as="geometry" />
        </mxCell>
        <mxCell id="k5f1ETuhjHtOltYRsjwA-41" value="" style="endArrow=none;html=1;rounded=0;" edge="1" parent="1">
          <mxGeometry width="50" height="50" relative="1" as="geometry">
            <mxPoint x="40" y="420" as="sourcePoint" />
            <mxPoint x="77.5" y="419.5" as="targetPoint" />
            <Array as="points">
              <mxPoint x="47.5" y="419.5" />
            </Array>
          </mxGeometry>
        </mxCell>
        <mxCell id="k5f1ETuhjHtOltYRsjwA-43" value="" style="endArrow=none;html=1;rounded=0;" edge="1" parent="1">
          <mxGeometry width="50" height="50" relative="1" as="geometry">
            <mxPoint x="40" y="420" as="sourcePoint" />
            <mxPoint x="40" y="180" as="targetPoint" />
          </mxGeometry>
        </mxCell>
        <mxCell id="k5f1ETuhjHtOltYRsjwA-44" value="" style="endArrow=classic;html=1;rounded=0;" edge="1" parent="1">
          <mxGeometry width="50" height="50" relative="1" as="geometry">
            <mxPoint x="40" y="180" as="sourcePoint" />
            <mxPoint x="80" y="180" as="targetPoint" />
          </mxGeometry>
        </mxCell>
      </root>
    </mxGraphModel>
  </diagram>
</mxfile>
